<svg xmlns="http://www.w3.org/2000/svg" width="900" height="400" font-family="Segoe UI,Arial,sans-serif">
<rect width="900" height="400" fill="#fff"/>
<text x="70" y="28" font-size="18" font-weight="bold" fill="#202124">新鲜度 vs 月成本：四种策略对比</text>
<text x="70" y="48" font-size="12" fill="#9aa0a6">上：机龄随时间变化（蓝线=机龄上升，红点=平均机龄）；下：月成本（越小越省）</text>
<rect x="70" y="80" width="790" height="85.0" fill="#f8f9fa" stroke="#dadce0"/>
<text x="465.0" y="150.0" font-size="12" text-anchor="middle" fill="#5f6368">机龄随时间上升（单位：月）</text>
<line x1="70.0" y1="80" x2="70.0" y2="165.0" stroke="#e8eaed" stroke-dasharray="2,2"/>
<text x="70.0" y="175.0" font-size="10" text-anchor="middle" fill="#5f6368">0</text>
<line x1="228.0" y1="80" x2="228.0" y2="165.0" stroke="#e8eaed" stroke-dasharray="2,2"/>
<text x="228.0" y="175.0" font-size="10" text-anchor="middle" fill="#5f6368">12</text>
<line x1="386.0" y1="80" x2="386.0" y2="165.0" stroke="#e8eaed" stroke-dasharray="2,2"/>
<text x="386.0" y="175.0" font-size="10" text-anchor="middle" fill="#5f6368">24</text>
<line x1="544.0" y1="80" x2="544.0" y2="165.0" stroke="#e8eaed" stroke-dasharray="2,2"/>
<text x="544.0" y="175.0" font-size="10" text-anchor="middle" fill="#5f6368">36</text>
<line x1="702.0" y1="80" x2="702.0" y2="165.0" stroke="#e8eaed" stroke-dasharray="2,2"/>
<text x="702.0" y="175.0" font-size="10" text-anchor="middle" fill="#5f6368">48</text>
<line x1="860.0" y1="80" x2="860.0" y2="165.0" stroke="#e8eaed" stroke-dasharray="2,2"/>
<text x="860.0" y="175.0" font-size="10" text-anchor="middle" fill="#5f6368">60</text>
<line x1="70.0" y1="80.0" x2="228.0" y2="97.0" stroke="#ea4335" stroke-width="3" opacity="0.7"/>
<circle cx="70.0" cy="80.0" r="4" fill="#ea4335"/>
<circle cx="228.0" cy="97.0" r="4" fill="#ea4335"/>
<circle cx="149.0" cy="88.5" r="6" fill="none" stroke="#ea4335" stroke-width="2"/>
<text x="157.0" y="92.5" font-size="11" fill="#202124" font-weight="bold">买全新用1年</text>
<text x="157.0" y="106.5" font-size="10" fill="#5f6368">平均机龄：6.0个月</text>
<line x1="70.0" y1="80.0" x2="386.0" y2="114.0" stroke="#4285f4" stroke-width="3" opacity="0.7"/>
<circle cx="70.0" cy="80.0" r="4" fill="#4285f4"/>
<circle cx="386.0" cy="114.0" r="4" fill="#4285f4"/>
<circle cx="228.0" cy="97.0" r="6" fill="none" stroke="#4285f4" stroke-width="2"/>
<text x="236.0" y="101.0" font-size="11" fill="#202124" font-weight="bold">买全新用2年</text>
<text x="236.0" y="115.0" font-size="10" fill="#5f6368">平均机龄：12.0个月</text>
<line x1="149.0" y1="88.5" x2="465.0" y2="122.5" stroke="#34a853" stroke-width="3" opacity="0.7"/>
<circle cx="149.0" cy="88.5" r="4" fill="#34a853"/>
<circle cx="465.0" cy="122.5" r="4" fill="#34a853"/>
<circle cx="307.0" cy="105.5" r="6" fill="none" stroke="#34a853" stroke-width="2"/>
<text x="315.0" y="109.5" font-size="11" fill="#202124" font-weight="bold">买半年二手用2年</text>
<text x="315.0" y="123.5" font-size="10" fill="#5f6368">平均机龄：18.0个月</text>
<line x1="70.0" y1="80.0" x2="544.0" y2="131.0" stroke="#fbbc04" stroke-width="3" opacity="0.7"/>
<circle cx="70.0" cy="80.0" r="4" fill="#fbbc04"/>
<circle cx="544.0" cy="131.0" r="4" fill="#fbbc04"/>
<circle cx="307.0" cy="105.5" r="6" fill="none" stroke="#fbbc04" stroke-width="2"/>
<text x="315.0" y="109.5" font-size="11" fill="#202124" font-weight="bold">买全新用3年</text>
<text x="315.0" y="123.5" font-size="10" fill="#5f6368">平均机龄：18.0个月</text>
<line x1="70" y1="205.0" x2="860" y2="205.0" stroke="#dadce0" stroke-width="2"/>
<rect x="70" y="225.0" width="790" height="85.0" fill="#f8f9fa" stroke="#dadce0"/>
<text x="465.0" y="345" font-size="12" text-anchor="middle" fill="#5f6368">每月成本（元）</text>
<line x1="70" y1="225.0" x2="860" y2="225.0" stroke="#e8eaed" stroke-dasharray="2,2"/>
<text x="62.0" y="229.0" font-size="10" text-anchor="end" fill="#5f6368">20</text>
<line x1="70" y1="239.2" x2="860" y2="239.2" stroke="#e8eaed" stroke-dasharray="2,2"/>
<text x="62.0" y="243.2" font-size="10" text-anchor="end" fill="#5f6368">40</text>
<line x1="70" y1="253.3" x2="860" y2="253.3" stroke="#e8eaed" stroke-dasharray="2,2"/>
<text x="62.0" y="257.3" font-size="10" text-anchor="end" fill="#5f6368">60</text>
<line x1="70" y1="267.5" x2="860" y2="267.5" stroke="#e8eaed" stroke-dasharray="2,2"/>
<text x="62.0" y="271.5" font-size="10" text-anchor="end" fill="#5f6368">80</text>
<line x1="70" y1="281.7" x2="860" y2="281.7" stroke="#e8eaed" stroke-dasharray="2,2"/>
<text x="62.0" y="285.7" font-size="10" text-anchor="end" fill="#5f6368">100</text>
<line x1="70" y1="295.8" x2="860" y2="295.8" stroke="#e8eaed" stroke-dasharray="2,2"/>
<text x="62.0" y="299.8" font-size="10" text-anchor="end" fill="#5f6368">120</text>
<line x1="70" y1="310.0" x2="860" y2="310.0" stroke="#e8eaed" stroke-dasharray="2,2"/>
<text x="62.0" y="314.0" font-size="10" text-anchor="end" fill="#5f6368">140</text>
<circle cx="149.0" cy="310.5" r="6" fill="#ea4335"/>
<line x1="149.0" y1="88.5" x2="149.0" y2="310.5" stroke="#ea4335" stroke-width="1" stroke-dasharray="4,2" opacity="0.5"/>
<text x="157.0" y="314.5" font-size="10" fill="#202124" font-weight="bold">买全新用1年</text>
<text x="157.0" y="328.5" font-size="10" fill="#5f6368">月成本：¥140.7/月</text>
<circle cx="228.0" cy="296.5" r="6" fill="#4285f4"/>
<line x1="228.0" y1="97.0" x2="228.0" y2="296.5" stroke="#4285f4" stroke-width="1" stroke-dasharray="4,2" opacity="0.5"/>
<text x="236.0" y="300.5" font-size="10" fill="#202124" font-weight="bold">买全新用2年</text>
<text x="236.0" y="314.5" font-size="10" fill="#5f6368">月成本：¥120.9/月</text>
<circle cx="307.0" cy="283.4" r="6" fill="#34a853"/>
<line x1="307.0" y1="105.5" x2="307.0" y2="283.4" stroke="#34a853" stroke-width="1" stroke-dasharray="4,2" opacity="0.5"/>
<text x="315.0" y="287.4" font-size="10" fill="#202124" font-weight="bold">买半年二手用2年</text>
<text x="315.0" y="301.4" font-size="10" fill="#5f6368">月成本：¥102.5/月</text>
<circle cx="307.0" cy="285.1" r="6" fill="#fbbc04"/>
<line x1="307.0" y1="105.5" x2="307.0" y2="285.1" stroke="#fbbc04" stroke-width="1" stroke-dasharray="4,2" opacity="0.5"/>
<text x="315.0" y="289.1" font-size="10" fill="#202124" font-weight="bold">买全新用3年</text>
<text x="315.0" y="303.1" font-size="10" fill="#5f6368">月成本：¥104.8/月</text>
<circle cx="162.2" cy="307.9" r="8" fill="none" stroke="#202124" stroke-width="2"/>
<text x="172.2" y="311.9" font-size="11" fill="#202124" font-weight="bold">你的情况</text>
<text x="172.2" y="327.9" font-size="10" fill="#5f6368">平均机龄：7个月，月成本：¥137/月</text>
</svg>