<svg xmlns="http://www.w3.org/2000/svg" width="960" height="540" font-family="Segoe UI,Arial,sans-serif">
<rect width="960" height="540" fill="#fff"/>
<text x="75" y="30" font-size="19" font-weight="bold" fill="#202124">iPhone 18 二手回收价预测 (国行标准款, 首发¥5999)</text>
<text x="75" y="48" font-size="12" fill="#9aa0a6">基于历史折旧曲线推演, 2026-09 发布起算; 数值为预估, 仅供参考</text>
<line x1="75" y1="460.0" x2="920" y2="460.0" stroke="#e8eaed"/>
<text x="67" y="464.0" font-size="11" text-anchor="end" fill="#5f6368">0</text>
<line x1="75" y1="395.0" x2="920" y2="395.0" stroke="#e8eaed"/>
<text x="67" y="399.0" font-size="11" text-anchor="end" fill="#5f6368">1000</text>
<line x1="75" y1="330.0" x2="920" y2="330.0" stroke="#e8eaed"/>
<text x="67" y="334.0" font-size="11" text-anchor="end" fill="#5f6368">2000</text>
<line x1="75" y1="265.0" x2="920" y2="265.0" stroke="#e8eaed"/>
<text x="67" y="269.0" font-size="11" text-anchor="end" fill="#5f6368">3000</text>
<line x1="75" y1="200.0" x2="920" y2="200.0" stroke="#e8eaed"/>
<text x="67" y="204.0" font-size="11" text-anchor="end" fill="#5f6368">4000</text>
<line x1="75" y1="135.0" x2="920" y2="135.0" stroke="#e8eaed"/>
<text x="67" y="139.0" font-size="11" text-anchor="end" fill="#5f6368">5000</text>
<line x1="75" y1="70.0" x2="920" y2="70.0" stroke="#e8eaed"/>
<text x="67" y="74.0" font-size="11" text-anchor="end" fill="#5f6368">6000</text>
<line x1="75.0" y1="70" x2="75.0" y2="460" stroke="#f1f3f4"/>
<text x="75.0" y="478.0" font-size="10" text-anchor="middle" fill="#5f6368">2026-09</text>
<text x="75.0" y="492.0" font-size="9" text-anchor="middle" fill="#bdc1c6">0月</text>
<line x1="180.6" y1="70" x2="180.6" y2="460" stroke="#f1f3f4"/>
<text x="180.6" y="478.0" font-size="10" text-anchor="middle" fill="#5f6368">2027-03</text>
<text x="180.6" y="492.0" font-size="9" text-anchor="middle" fill="#bdc1c6">6月</text>
<line x1="286.2" y1="70" x2="286.2" y2="460" stroke="#f1f3f4"/>
<text x="286.2" y="478.0" font-size="10" text-anchor="middle" fill="#5f6368">2027-09</text>
<text x="286.2" y="492.0" font-size="9" text-anchor="middle" fill="#bdc1c6">12月</text>
<line x1="391.9" y1="70" x2="391.9" y2="460" stroke="#f1f3f4"/>
<text x="391.9" y="478.0" font-size="10" text-anchor="middle" fill="#5f6368">2028-03</text>
<text x="391.9" y="492.0" font-size="9" text-anchor="middle" fill="#bdc1c6">18月</text>
<line x1="497.5" y1="70" x2="497.5" y2="460" stroke="#f1f3f4"/>
<text x="497.5" y="478.0" font-size="10" text-anchor="middle" fill="#5f6368">2028-09</text>
<text x="497.5" y="492.0" font-size="9" text-anchor="middle" fill="#bdc1c6">24月</text>
<line x1="603.1" y1="70" x2="603.1" y2="460" stroke="#f1f3f4"/>
<text x="603.1" y="478.0" font-size="10" text-anchor="middle" fill="#5f6368">2029-03</text>
<text x="603.1" y="492.0" font-size="9" text-anchor="middle" fill="#bdc1c6">30月</text>
<line x1="708.8" y1="70" x2="708.8" y2="460" stroke="#f1f3f4"/>
<text x="708.8" y="478.0" font-size="10" text-anchor="middle" fill="#5f6368">2029-09</text>
<text x="708.8" y="492.0" font-size="9" text-anchor="middle" fill="#bdc1c6">36月</text>
<line x1="814.4" y1="70" x2="814.4" y2="460" stroke="#f1f3f4"/>
<text x="814.4" y="478.0" font-size="10" text-anchor="middle" fill="#5f6368">2030-03</text>
<text x="814.4" y="492.0" font-size="9" text-anchor="middle" fill="#bdc1c6">42月</text>
<line x1="920.0" y1="70" x2="920.0" y2="460" stroke="#f1f3f4"/>
<text x="920.0" y="478.0" font-size="10" text-anchor="middle" fill="#5f6368">2030-09</text>
<text x="920.0" y="492.0" font-size="9" text-anchor="middle" fill="#bdc1c6">48月</text>
<path d="M75.0,70.1 L92.6,81.8 L110.2,93.5 L127.8,105.2 L145.4,116.9 L163.0,128.6 L180.6,140.3 L198.2,145.5 L215.8,150.7 L233.4,155.9 L251.0,161.1 L268.6,166.3 L286.2,171.5 L303.9,179.3 L321.5,187.1 L339.1,193.9 L356.7,200.7 L374.3,207.5 L391.9,214.4 L409.5,219.6 L427.1,224.8 L444.7,230.0 L462.3,235.2 L479.9,240.4 L497.5,245.6 L515.1,250.1 L532.7,254.7 L550.3,259.2 L567.9,263.8 L585.5,268.2 L603.1,272.8 L620.7,276.7 L638.3,280.6 L655.9,284.5 L673.5,288.4 L691.1,292.3 L708.8,296.2 L726.4,299.5 L744.0,302.7 L761.6,305.9 L779.2,309.2 L796.8,312.5 L814.4,315.7 L832.0,318.9 L849.6,322.2 L867.2,325.5 L884.8,328.7 L902.4,331.9 L920.0,335.2" fill="none" stroke="#ea4335" stroke-width="2.5"/>
<rect x="286.2" y="70" width="52.8" height="390.0" fill="#34a853" opacity="0.10"/>
<rect x="497.5" y="70" width="52.8" height="390.0" fill="#34a853" opacity="0.10"/>
<circle cx="286.2" cy="171.5" r="4.5" fill="#1e8e3e"/>
<text x="293.2" y="163.5" font-size="10.5" fill="#1e8e3e">2027-09 抄底窗口 ¥4439</text>
<circle cx="321.5" cy="187.1" r="4.5" fill="#1e8e3e"/>
<text x="328.5" y="203.1" font-size="10.5" fill="#1e8e3e">双11低点 ¥4199</text>
<circle cx="497.5" cy="245.6" r="4.5" fill="#1e8e3e"/>
<text x="504.5" y="237.6" font-size="10.5" fill="#1e8e3e">2028-09 性价比顶点 ¥3299</text>
<text x="560.0" y="100.0" font-size="12" fill="#1e8e3e" font-weight="bold">绿色区=抄底窗口(新机发布后)</text>
</svg>