<svg xmlns="http://www.w3.org/2000/svg" width="900" height="500" font-family="Segoe UI,Arial,sans-serif">
<rect width="900" height="500" fill="#fff"/>
<text x="70" y="30" font-size="18" font-weight="bold" fill="#202124">每月持有成本 vs 持有时长</text>
<text x="70" y="48" font-size="12" fill="#9aa0a6">越往右下越省钱：持有越久、买得越旧，每月成本越低</text>
<line x1="70" y1="445.0" x2="690" y2="445.0" stroke="#e8eaed"/>
<text x="62" y="449.0" font-size="11" text-anchor="end" fill="#5f6368">0</text>
<line x1="70" y1="396.2" x2="690" y2="396.2" stroke="#e8eaed"/>
<text x="62" y="400.2" font-size="11" text-anchor="end" fill="#5f6368">20</text>
<line x1="70" y1="347.5" x2="690" y2="347.5" stroke="#e8eaed"/>
<text x="62" y="351.5" font-size="11" text-anchor="end" fill="#5f6368">40</text>
<line x1="70" y1="298.8" x2="690" y2="298.8" stroke="#e8eaed"/>
<text x="62" y="302.8" font-size="11" text-anchor="end" fill="#5f6368">60</text>
<line x1="70" y1="250.0" x2="690" y2="250.0" stroke="#e8eaed"/>
<text x="62" y="254.0" font-size="11" text-anchor="end" fill="#5f6368">80</text>
<line x1="70" y1="201.2" x2="690" y2="201.2" stroke="#e8eaed"/>
<text x="62" y="205.2" font-size="11" text-anchor="end" fill="#5f6368">100</text>
<line x1="70" y1="152.5" x2="690" y2="152.5" stroke="#e8eaed"/>
<text x="62" y="156.5" font-size="11" text-anchor="end" fill="#5f6368">120</text>
<line x1="70" y1="103.8" x2="690" y2="103.8" stroke="#e8eaed"/>
<text x="62" y="107.8" font-size="11" text-anchor="end" fill="#5f6368">140</text>
<line x1="70" y1="55.0" x2="690" y2="55.0" stroke="#e8eaed"/>
<text x="62" y="59.0" font-size="11" text-anchor="end" fill="#5f6368">160</text>
<text x="121.7" y="465.0" font-size="10" text-anchor="middle" fill="#5f6368">6</text>
<text x="173.3" y="465.0" font-size="10" text-anchor="middle" fill="#5f6368">12</text>
<text x="225.0" y="465.0" font-size="10" text-anchor="middle" fill="#5f6368">18</text>
<text x="276.7" y="465.0" font-size="10" text-anchor="middle" fill="#5f6368">24</text>
<text x="328.3" y="465.0" font-size="10" text-anchor="middle" fill="#5f6368">30</text>
<text x="380.0" y="465.0" font-size="10" text-anchor="middle" fill="#5f6368">36</text>
<text x="431.7" y="465.0" font-size="10" text-anchor="middle" fill="#5f6368">42</text>
<text x="483.3" y="465.0" font-size="10" text-anchor="middle" fill="#5f6368">48</text>
<text x="535.0" y="465.0" font-size="10" text-anchor="middle" fill="#5f6368">54</text>
<text x="586.7" y="465.0" font-size="10" text-anchor="middle" fill="#5f6368">60</text>
<text x="638.3" y="465.0" font-size="10" text-anchor="middle" fill="#5f6368">66</text>
<text x="690.0" y="465.0" font-size="10" text-anchor="middle" fill="#5f6368">72</text>
<text x="380.0" y="485.0" font-size="12" text-anchor="middle" fill="#3c4043">持有月数</text>
<text x="20" y="250.0" font-size="12" fill="#3c4043" transform="rotate(-90 20 250.0)">元/月</text>
<path d="M121.7,6.2 L147.5,87.4 L173.3,128.1 L199.2,135.4 L225.0,144.5 L250.8,159.6 L276.7,170.8 L302.5,182.2 L328.3,191.5 L354.2,201.2 L380.0,209.3 L405.8,218.1 L431.7,225.6 L457.5,232.2 L483.3,237.8 L509.2,244.9 L535.0,251.5 L560.8,257.1 L586.7,262.2 L612.5,266.8 L638.3,271.0 L664.2,274.9 L690.0,278.5" fill="none" stroke="#ea4335" stroke-width="2.5"/>
<path d="M121.7,176.9 L147.5,201.2 L173.3,213.4 L199.2,225.6 L225.0,233.7 L250.8,242.9 L276.7,250.0 L302.5,258.0 L328.3,264.6 L354.2,270.0 L380.0,274.4 L405.8,281.0 L431.7,286.6 L457.5,291.4 L483.3,295.8 L509.2,299.5 L535.0,302.9 L560.8,305.8 L586.7,308.5 L612.5,311.4 L638.3,314.4 L664.2,316.8 L690.0,319.0" fill="none" stroke="#fbbc05" stroke-width="2.5"/>
<path d="M121.7,274.4 L147.5,282.4 L173.3,286.6 L199.2,293.9 L225.0,298.8 L250.8,302.2 L276.7,304.8 L302.5,310.9 L328.3,315.8 L354.2,319.7 L380.0,323.1 L405.8,326.1 L431.7,328.2 L457.5,330.4 L483.3,332.1 L509.2,334.6 L535.0,336.8 L560.8,338.5 L586.7,340.2 L612.5,342.9 L638.3,345.3 L664.2,347.5 L690.0,349.4" fill="none" stroke="#4285f4" stroke-width="2.5"/>
<path d="M121.7,323.1 L147.5,323.1 L173.3,323.1 L199.2,330.4 L225.0,335.3 L250.8,338.7 L276.7,341.4 L302.5,343.4 L328.3,345.1 L354.2,346.3 L380.0,347.5 L405.8,349.4 L431.7,350.9 L457.5,352.4 L483.3,353.6 L509.2,356.0 L535.0,358.2 L560.8,360.4 L586.7,362.1 L612.5,366.0 L638.3,369.7 L664.2,372.9 L690.0,376.0" fill="none" stroke="#34a853" stroke-width="2.5"/>
<circle cx="190.6" cy="111.1" r="5" fill="none" stroke="#202124" stroke-width="2"/>
<text x="198.6" y="105.1" font-size="11" fill="#202124">你: 16用14月=137</text>
<text x="715" y="63" font-size="13" font-weight="bold" fill="#202124">买入方式</text>
<line x1="715" y1="75" x2="737" y2="75" stroke="#ea4335" stroke-width="3"/>
<text x="745" y="79" font-size="12" fill="#3c4043">买全新机</text>
<line x1="715" y1="101" x2="737" y2="101" stroke="#fbbc05" stroke-width="3"/>
<text x="745" y="105" font-size="12" fill="#3c4043">买1年二手</text>
<line x1="715" y1="127" x2="737" y2="127" stroke="#4285f4" stroke-width="3"/>
<text x="745" y="131" font-size="12" fill="#3c4043">买2年二手</text>
<line x1="715" y1="153" x2="737" y2="153" stroke="#34a853" stroke-width="3"/>
<text x="745" y="157" font-size="12" fill="#3c4043">买3年二手</text>
<text x="715" y="205" font-size="11" fill="#5f6368">结论(持有24个月):</text>
<text x="715" y="227" font-size="11" fill="#5f6368">全新机: 112元/月</text>
<text x="715" y="245" font-size="11" fill="#5f6368">1年二手: 80元/月</text>
<text x="715" y="263" font-size="11" fill="#5f6368">2年二手: 57元/月</text>
<text x="715" y="281" font-size="11" fill="#5f6368">3年二手: 42元/月</text>
</svg>