<svg xmlns="http://www.w3.org/2000/svg" width="960" height="560" font-family="Segoe UI, Arial, sans-serif">
<rect width="960" height="560" fill="#ffffff"/>
<text x="70" y="28" font-size="19" font-weight="bold" fill="#202124">国行标准款 iPhone：首发价 vs 当前二手价 (人民币)</text>
<text x="70" y="46" font-size="12" fill="#9aa0a6">二手价为 2026 年初主流存储、良好成色近似行情，仅供参考</text>
<line x1="70" y1="500.0" x2="760" y2="500.0" stroke="#e8eaed" stroke-width="1"/>
<text x="60" y="504.0" font-size="11" text-anchor="end" fill="#5f6368">0</text>
<line x1="70" y1="451.1" x2="760" y2="451.1" stroke="#e8eaed" stroke-width="1"/>
<text x="60" y="455.1" font-size="11" text-anchor="end" fill="#5f6368">1000</text>
<line x1="70" y1="402.2" x2="760" y2="402.2" stroke="#e8eaed" stroke-width="1"/>
<text x="60" y="406.2" font-size="11" text-anchor="end" fill="#5f6368">2000</text>
<line x1="70" y1="353.3" x2="760" y2="353.3" stroke="#e8eaed" stroke-width="1"/>
<text x="60" y="357.3" font-size="11" text-anchor="end" fill="#5f6368">3000</text>
<line x1="70" y1="304.4" x2="760" y2="304.4" stroke="#e8eaed" stroke-width="1"/>
<text x="60" y="308.4" font-size="11" text-anchor="end" fill="#5f6368">4000</text>
<line x1="70" y1="255.6" x2="760" y2="255.6" stroke="#e8eaed" stroke-width="1"/>
<text x="60" y="259.6" font-size="11" text-anchor="end" fill="#5f6368">5000</text>
<line x1="70" y1="206.7" x2="760" y2="206.7" stroke="#e8eaed" stroke-width="1"/>
<text x="60" y="210.7" font-size="11" text-anchor="end" fill="#5f6368">6000</text>
<line x1="70" y1="157.8" x2="760" y2="157.8" stroke="#e8eaed" stroke-width="1"/>
<text x="60" y="161.8" font-size="11" text-anchor="end" fill="#5f6368">7000</text>
<line x1="70" y1="108.9" x2="760" y2="108.9" stroke="#e8eaed" stroke-width="1"/>
<text x="60" y="112.9" font-size="11" text-anchor="end" fill="#5f6368">8000</text>
<line x1="70" y1="60.0" x2="760" y2="60.0" stroke="#e8eaed" stroke-width="1"/>
<text x="60" y="64.0" font-size="11" text-anchor="end" fill="#5f6368">9000</text>
<text x="70.0" y="520" font-size="12" text-anchor="middle" fill="#3c4043">7</text>
<text x="70.0" y="536" font-size="10" text-anchor="middle" fill="#9aa0a6">2016</text>
<text x="146.7" y="520" font-size="12" text-anchor="middle" fill="#3c4043">8</text>
<text x="146.7" y="536" font-size="10" text-anchor="middle" fill="#9aa0a6">2017</text>
<text x="223.3" y="520" font-size="12" text-anchor="middle" fill="#3c4043">X</text>
<text x="223.3" y="536" font-size="10" text-anchor="middle" fill="#9aa0a6">2017</text>
<text x="300.0" y="520" font-size="12" text-anchor="middle" fill="#3c4043">XR</text>
<text x="300.0" y="536" font-size="10" text-anchor="middle" fill="#9aa0a6">2018</text>
<text x="376.7" y="520" font-size="12" text-anchor="middle" fill="#3c4043">11</text>
<text x="376.7" y="536" font-size="10" text-anchor="middle" fill="#9aa0a6">2019</text>
<text x="453.3" y="520" font-size="12" text-anchor="middle" fill="#3c4043">12</text>
<text x="453.3" y="536" font-size="10" text-anchor="middle" fill="#9aa0a6">2020</text>
<text x="530.0" y="520" font-size="12" text-anchor="middle" fill="#3c4043">13</text>
<text x="530.0" y="536" font-size="10" text-anchor="middle" fill="#9aa0a6">2021</text>
<text x="606.7" y="520" font-size="12" text-anchor="middle" fill="#3c4043">14</text>
<text x="606.7" y="536" font-size="10" text-anchor="middle" fill="#9aa0a6">2022</text>
<text x="683.3" y="520" font-size="12" text-anchor="middle" fill="#3c4043">15</text>
<text x="683.3" y="536" font-size="10" text-anchor="middle" fill="#9aa0a6">2023</text>
<text x="760.0" y="520" font-size="12" text-anchor="middle" fill="#3c4043">16</text>
<text x="760.0" y="536" font-size="10" text-anchor="middle" fill="#9aa0a6">2024</text>
<path d="M70.0,236.6 L146.7,212.1 L223.3,89.9 L300.0,182.3 L376.7,231.2 L453.3,192.0 L530.0,206.7 L606.7,206.7 L683.3,206.7 L760.0,206.7" fill="none" stroke="#4285f4" stroke-width="2.5"/>
<circle cx="70.0" cy="236.6" r="3.5" fill="#4285f4"/>
<circle cx="146.7" cy="212.1" r="3.5" fill="#4285f4"/>
<circle cx="223.3" cy="89.9" r="3.5" fill="#4285f4"/>
<circle cx="300.0" cy="182.3" r="3.5" fill="#4285f4"/>
<circle cx="376.7" cy="231.2" r="3.5" fill="#4285f4"/>
<circle cx="453.3" cy="192.0" r="3.5" fill="#4285f4"/>
<circle cx="530.0" cy="206.7" r="3.5" fill="#4285f4"/>
<circle cx="606.7" cy="206.7" r="3.5" fill="#4285f4"/>
<circle cx="683.3" cy="206.7" r="3.5" fill="#4285f4"/>
<circle cx="760.0" cy="206.7" r="3.5" fill="#4285f4"/>
<path d="M70.0,482.9 L146.7,470.7 L223.3,453.6 L300.0,451.1 L376.7,429.1 L453.3,399.8 L530.0,355.8 L606.7,326.4 L683.3,292.2 L760.0,253.1" fill="none" stroke="#ea4335" stroke-width="2.5"/>
<circle cx="70.0" cy="482.9" r="3.5" fill="#ea4335"/>
<text x="70.0" y="474.9" font-size="9" text-anchor="middle" fill="#ea4335">350</text>
<circle cx="146.7" cy="470.7" r="3.5" fill="#ea4335"/>
<text x="146.7" y="462.7" font-size="9" text-anchor="middle" fill="#ea4335">600</text>
<circle cx="223.3" cy="453.6" r="3.5" fill="#ea4335"/>
<text x="223.3" y="445.6" font-size="9" text-anchor="middle" fill="#ea4335">950</text>
<circle cx="300.0" cy="451.1" r="3.5" fill="#ea4335"/>
<text x="300.0" y="443.1" font-size="9" text-anchor="middle" fill="#ea4335">1000</text>
<circle cx="376.7" cy="429.1" r="3.5" fill="#ea4335"/>
<text x="376.7" y="421.1" font-size="9" text-anchor="middle" fill="#ea4335">1450</text>
<circle cx="453.3" cy="399.8" r="3.5" fill="#ea4335"/>
<text x="453.3" y="391.8" font-size="9" text-anchor="middle" fill="#ea4335">2050</text>
<circle cx="530.0" cy="355.8" r="3.5" fill="#ea4335"/>
<text x="530.0" y="347.8" font-size="9" text-anchor="middle" fill="#ea4335">2950</text>
<circle cx="606.7" cy="326.4" r="3.5" fill="#ea4335"/>
<text x="606.7" y="318.4" font-size="9" text-anchor="middle" fill="#ea4335">3550</text>
<circle cx="683.3" cy="292.2" r="3.5" fill="#ea4335"/>
<text x="683.3" y="284.2" font-size="9" text-anchor="middle" fill="#ea4335">4250</text>
<circle cx="760.0" cy="253.1" r="3.5" fill="#ea4335"/>
<text x="760.0" y="245.1" font-size="9" text-anchor="middle" fill="#ea4335">5050</text>
<line x1="785" y1="70" x2="809" y2="70" stroke="#4285f4" stroke-width="3"/>
<text x="817" y="74" font-size="12" fill="#3c4043">首发价(国行)</text>
<line x1="785" y1="96" x2="809" y2="96" stroke="#ea4335" stroke-width="3"/>
<text x="817" y="100" font-size="12" fill="#3c4043">当前二手价</text>
<text x="785" y="140" font-size="12" font-weight="bold" fill="#202124">残值率(约)</text>
<text x="785" y="162" font-size="10.5" fill="#5f6368">iPhone 7: 6%</text>
<text x="785" y="180" font-size="10.5" fill="#5f6368">iPhone 8: 10%</text>
<text x="785" y="198" font-size="10.5" fill="#5f6368">iPhone X: 11%</text>
<text x="785" y="216" font-size="10.5" fill="#5f6368">iPhone XR: 15%</text>
<text x="785" y="234" font-size="10.5" fill="#5f6368">iPhone 11: 26%</text>
<text x="785" y="252" font-size="10.5" fill="#5f6368">iPhone 12: 33%</text>
<text x="785" y="270" font-size="10.5" fill="#5f6368">iPhone 13: 49%</text>
<text x="785" y="288" font-size="10.5" fill="#5f6368">iPhone 14: 59%</text>
<text x="785" y="306" font-size="10.5" fill="#5f6368">iPhone 15: 71%</text>
<text x="785" y="324" font-size="10.5" fill="#5f6368">iPhone 16: 84%</text>
</svg>