<svg xmlns="http://www.w3.org/2000/svg" width="900" height="520" font-family="Segoe UI,Arial,sans-serif">
<rect width="900" height="520" fill="#fff"/>
<text x="70" y="28" font-size="18" font-weight="bold" fill="#202124">新科技 vs 省钱：最优购买前沿</text>
<text x="70" y="46" font-size="12" fill="#9aa0a6">越靠左=用的科技越新；越靠下=每月越省。红线=同等新鲜度下最省的策略</text>
<line x1="70" y1="450.0" x2="860" y2="450.0" stroke="#e8eaed"/>
<text x="62" y="454.0" font-size="11" text-anchor="end" fill="#5f6368">20</text>
<line x1="70" y1="385.0" x2="860" y2="385.0" stroke="#e8eaed"/>
<text x="62" y="389.0" font-size="11" text-anchor="end" fill="#5f6368">40</text>
<line x1="70" y1="320.0" x2="860" y2="320.0" stroke="#e8eaed"/>
<text x="62" y="324.0" font-size="11" text-anchor="end" fill="#5f6368">60</text>
<line x1="70" y1="255.0" x2="860" y2="255.0" stroke="#e8eaed"/>
<text x="62" y="259.0" font-size="11" text-anchor="end" fill="#5f6368">80</text>
<line x1="70" y1="190.0" x2="860" y2="190.0" stroke="#e8eaed"/>
<text x="62" y="194.0" font-size="11" text-anchor="end" fill="#5f6368">100</text>
<line x1="70" y1="125.0" x2="860" y2="125.0" stroke="#e8eaed"/>
<text x="62" y="129.0" font-size="11" text-anchor="end" fill="#5f6368">120</text>
<line x1="70" y1="60.0" x2="860" y2="60.0" stroke="#e8eaed"/>
<text x="62" y="64.0" font-size="11" text-anchor="end" fill="#5f6368">140</text>
<text x="70.0" y="470.0" font-size="10" text-anchor="middle" fill="#5f6368">0</text>
<text x="149.0" y="470.0" font-size="10" text-anchor="middle" fill="#5f6368">6</text>
<text x="228.0" y="470.0" font-size="10" text-anchor="middle" fill="#5f6368">12</text>
<text x="307.0" y="470.0" font-size="10" text-anchor="middle" fill="#5f6368">18</text>
<text x="386.0" y="470.0" font-size="10" text-anchor="middle" fill="#5f6368">24</text>
<text x="465.0" y="470.0" font-size="10" text-anchor="middle" fill="#5f6368">30</text>
<text x="544.0" y="470.0" font-size="10" text-anchor="middle" fill="#5f6368">36</text>
<text x="623.0" y="470.0" font-size="10" text-anchor="middle" fill="#5f6368">42</text>
<text x="702.0" y="470.0" font-size="10" text-anchor="middle" fill="#5f6368">48</text>
<text x="781.0" y="470.0" font-size="10" text-anchor="middle" fill="#5f6368">54</text>
<text x="860.0" y="470.0" font-size="10" text-anchor="middle" fill="#5f6368">60</text>
<text x="465.0" y="492.0" font-size="12" text-anchor="middle" fill="#3c4043">平均机龄(月)  越小越新</text>
<text x="20" y="255.0" font-size="12" fill="#3c4043" transform="rotate(-90 20 255.0)">元/月</text>
<circle cx="149.0" cy="92.5" r="2.5" fill="#dadce0"/>
<circle cx="188.5" cy="114.3" r="2.5" fill="#dadce0"/>
<circle cx="228.0" cy="149.4" r="2.5" fill="#dadce0"/>
<circle cx="267.5" cy="177.0" r="2.5" fill="#dadce0"/>
<circle cx="307.0" cy="200.7" r="2.5" fill="#dadce0"/>
<circle cx="346.5" cy="222.5" r="2.5" fill="#dadce0"/>
<circle cx="386.0" cy="238.8" r="2.5" fill="#dadce0"/>
<circle cx="228.0" cy="206.2" r="2.5" fill="#dadce0"/>
<circle cx="267.5" cy="222.5" r="2.5" fill="#dadce0"/>
<circle cx="307.0" cy="238.8" r="2.5" fill="#dadce0"/>
<circle cx="346.5" cy="255.0" r="2.5" fill="#dadce0"/>
<circle cx="386.0" cy="271.2" r="2.5" fill="#dadce0"/>
<circle cx="425.5" cy="282.9" r="2.5" fill="#dadce0"/>
<circle cx="465.0" cy="297.6" r="2.5" fill="#dadce0"/>
<circle cx="307.0" cy="206.2" r="2.5" fill="#dadce0"/>
<circle cx="346.5" cy="233.2" r="2.5" fill="#dadce0"/>
<circle cx="386.0" cy="255.0" r="2.5" fill="#dadce0"/>
<circle cx="425.5" cy="274.5" r="2.5" fill="#dadce0"/>
<circle cx="465.0" cy="287.5" r="2.5" fill="#dadce0"/>
<circle cx="504.5" cy="303.8" r="2.5" fill="#dadce0"/>
<circle cx="544.0" cy="316.1" r="2.5" fill="#dadce0"/>
<circle cx="386.0" cy="271.2" r="2.5" fill="#dadce0"/>
<circle cx="425.5" cy="287.5" r="2.5" fill="#dadce0"/>
<circle cx="465.0" cy="303.8" r="2.5" fill="#dadce0"/>
<circle cx="504.5" cy="313.5" r="2.5" fill="#dadce0"/>
<circle cx="544.0" cy="328.1" r="2.5" fill="#dadce0"/>
<circle cx="583.5" cy="338.5" r="2.5" fill="#dadce0"/>
<circle cx="623.0" cy="346.3" r="2.5" fill="#dadce0"/>
<circle cx="465.0" cy="303.8" r="2.5" fill="#dadce0"/>
<circle cx="504.5" cy="320.0" r="2.5" fill="#dadce0"/>
<circle cx="544.0" cy="328.1" r="2.5" fill="#dadce0"/>
<circle cx="583.5" cy="342.8" r="2.5" fill="#dadce0"/>
<circle cx="623.0" cy="352.5" r="2.5" fill="#dadce0"/>
<circle cx="662.5" cy="359.3" r="2.5" fill="#dadce0"/>
<circle cx="702.0" cy="364.5" r="2.5" fill="#dadce0"/>
<circle cx="544.0" cy="336.2" r="2.5" fill="#dadce0"/>
<circle cx="583.5" cy="341.8" r="2.5" fill="#dadce0"/>
<circle cx="623.0" cy="356.7" r="2.5" fill="#dadce0"/>
<circle cx="662.5" cy="365.5" r="2.5" fill="#dadce0"/>
<circle cx="702.0" cy="371.4" r="2.5" fill="#dadce0"/>
<circle cx="741.5" cy="375.6" r="2.5" fill="#dadce0"/>
<circle cx="781.0" cy="381.1" r="2.5" fill="#dadce0"/>
<circle cx="623.0" cy="352.5" r="2.5" fill="#dadce0"/>
<circle cx="662.5" cy="368.8" r="2.5" fill="#dadce0"/>
<circle cx="702.0" cy="376.9" r="2.5" fill="#dadce0"/>
<circle cx="741.5" cy="381.8" r="2.5" fill="#dadce0"/>
<circle cx="781.0" cy="385.0" r="2.5" fill="#dadce0"/>
<circle cx="820.5" cy="389.6" r="2.5" fill="#dadce0"/>
<circle cx="860.0" cy="393.1" r="2.5" fill="#dadce0"/>
<path d="M149.0,92.5 L188.5,114.3 L228.0,206.2 L267.5,222.5 L307.0,238.8 L346.5,255.0 L386.0,271.2 L425.5,287.5 L465.0,303.8 L504.5,320.0 L544.0,336.2 L583.5,342.8 L623.0,356.7 L662.5,368.8 L702.0,376.9 L741.5,381.8 L781.0,385.0 L820.5,389.6 L860.0,393.1" fill="none" stroke="#ea4335" stroke-width="2.5"/>
<circle cx="149.0" cy="92.5" r="3.5" fill="#ea4335"/>
<circle cx="188.5" cy="114.3" r="3.5" fill="#ea4335"/>
<circle cx="228.0" cy="206.2" r="3.5" fill="#ea4335"/>
<circle cx="267.5" cy="222.5" r="3.5" fill="#ea4335"/>
<circle cx="307.0" cy="238.8" r="3.5" fill="#ea4335"/>
<circle cx="346.5" cy="255.0" r="3.5" fill="#ea4335"/>
<circle cx="386.0" cy="271.2" r="3.5" fill="#ea4335"/>
<circle cx="425.5" cy="287.5" r="3.5" fill="#ea4335"/>
<circle cx="465.0" cy="303.8" r="3.5" fill="#ea4335"/>
<circle cx="504.5" cy="320.0" r="3.5" fill="#ea4335"/>
<circle cx="544.0" cy="336.2" r="3.5" fill="#ea4335"/>
<circle cx="583.5" cy="342.8" r="3.5" fill="#ea4335"/>
<circle cx="623.0" cy="356.7" r="3.5" fill="#ea4335"/>
<circle cx="662.5" cy="368.8" r="3.5" fill="#ea4335"/>
<circle cx="702.0" cy="376.9" r="3.5" fill="#ea4335"/>
<circle cx="741.5" cy="381.8" r="3.5" fill="#ea4335"/>
<circle cx="781.0" cy="385.0" r="3.5" fill="#ea4335"/>
<circle cx="820.5" cy="389.6" r="3.5" fill="#ea4335"/>
<circle cx="860.0" cy="393.1" r="3.5" fill="#ea4335"/>
<rect x="70.0" y="60" width="131.7" height="390.0" fill="#ea4335" opacity="0.07"/>
<text x="135.8" y="78.0" font-size="11" text-anchor="middle" fill="#ea4335">冤大头区</text>
<text x="135.8" y="93.0" font-size="10" text-anchor="middle" fill="#ea4335">130元/月</text>
<rect x="214.8" y="190.0" width="171.2" height="81.2" fill="#34a853" opacity="0.10"/>
<text x="293.8" y="183.5" font-size="11" text-anchor="middle" fill="#1e8e3e">甜点区</text>
<text x="155.0" y="84.5" font-size="10.5" fill="#202124">买全新+1年就卖</text>
<text x="313.0" y="256.8" font-size="10.5" fill="#202124">买准新(6月)+持有2年=85</text>
<text x="552.0" y="368.9" font-size="10.5" fill="#202124">买3年二手+持有2年=42</text>
<circle cx="162.2" cy="69.8" r="5" fill="none" stroke="#202124" stroke-width="2"/>
<text x="170.2" y="73.8" font-size="10.5" fill="#202124">你现在:137</text>
</svg>