<svg xmlns="http://www.w3.org/2000/svg" width="1000" height="600" font-family="Segoe UI,Arial,sans-serif">
<rect width="1000" height="600" fill="#fff"/>
<text x="80" y="28" font-size="20" font-weight="bold" fill="#202124">iPhone价格曲线叠加图：购买与卖出时点可视化</text>
<text x="80" y="48" font-size="12" fill="#9aa0a6">三线叠加：全新机曲线、6个月二手曲线、12个月二手曲线，标注推荐策略与当前策略</text>
<line x1="80" y1="453.3" x2="960" y2="453.3" stroke="#e8eaed"/>
<text x="70" y="457.3" font-size="10" text-anchor="end" fill="#5f6368">¥1000</text>
<line x1="80" y1="386.6" x2="960" y2="386.6" stroke="#e8eaed"/>
<text x="70" y="390.6" font-size="10" text-anchor="end" fill="#5f6368">¥2000</text>
<line x1="80" y1="320.0" x2="960" y2="320.0" stroke="#e8eaed"/>
<text x="70" y="324.0" font-size="10" text-anchor="end" fill="#5f6368">¥3000</text>
<line x1="80" y1="253.3" x2="960" y2="253.3" stroke="#e8eaed"/>
<text x="70" y="257.3" font-size="10" text-anchor="end" fill="#5f6368">¥4000</text>
<line x1="80" y1="186.6" x2="960" y2="186.6" stroke="#e8eaed"/>
<text x="70" y="190.6" font-size="10" text-anchor="end" fill="#5f6368">¥5000</text>
<line x1="80" y1="119.9" x2="960" y2="119.9" stroke="#e8eaed"/>
<text x="70" y="123.9" font-size="10" text-anchor="end" fill="#5f6368">¥6000</text>
<line x1="80.0" y1="80" x2="80.0" y2="520" stroke="#e8eaed"/>
<text x="80.0" y="540.0" font-size="10" text-anchor="middle" fill="#5f6368">2027-03</text>
<line x1="226.7" y1="80" x2="226.7" y2="520" stroke="#e8eaed"/>
<text x="226.7" y="540.0" font-size="10" text-anchor="middle" fill="#5f6368">2028-02</text>
<line x1="373.3" y1="80" x2="373.3" y2="520" stroke="#e8eaed"/>
<text x="373.3" y="540.0" font-size="10" text-anchor="middle" fill="#5f6368">2029-02</text>
<line x1="520.0" y1="80" x2="520.0" y2="520" stroke="#e8eaed"/>
<text x="520.0" y="540.0" font-size="10" text-anchor="middle" fill="#5f6368">2030-02</text>
<line x1="666.7" y1="80" x2="666.7" y2="520" stroke="#e8eaed"/>
<text x="666.7" y="540.0" font-size="10" text-anchor="middle" fill="#5f6368">2031-02</text>
<line x1="813.3" y1="80" x2="813.3" y2="520" stroke="#e8eaed"/>
<text x="813.3" y="540.0" font-size="10" text-anchor="middle" fill="#5f6368">2032-02</text>
<line x1="960.0" y1="80" x2="960.0" y2="520" stroke="#e8eaed"/>
<text x="960.0" y="540.0" font-size="10" text-anchor="middle" fill="#5f6368">2033-01</text>
<text x="520.0" y="562.0" font-size="12" text-anchor="middle" fill="#3c4043">时间（月）</text>
<text x="30" y="300.0" font-size="12" fill="#3c4043" transform="rotate(-90 30 300.0)">价格（元）</text>
<path d="M80.0,120.0 L92.2,130.9 L104.4,141.4 L116.7,151.7 L128.9,161.7 L141.1,171.5 L153.3,180.9 L165.6,190.2 L177.8,199.1 L190.0,207.8 L202.2,216.3 L214.4,224.6 L226.7,232.6 L238.9,240.4 L251.1,248.0 L263.3,255.4 L275.6,262.6 L287.8,269.6 L300.0,276.4 L312.2,283.0 L324.4,289.4 L336.7,295.7 L348.9,301.8 L361.1,307.7 L373.3,313.5 L385.6,319.1 L397.8,324.6 L410.0,329.9 L422.2,335.0 L434.4,340.1 L446.7,345.0 L458.9,349.7 L471.1,354.3 L483.3,358.8 L495.6,363.2 L507.8,367.5 L520.0,371.6 L532.2,375.7 L544.4,379.6 L556.7,383.4 L568.9,387.1 L581.1,390.7 L593.3,394.2 L605.6,397.6 L617.8,401.0 L630.0,404.2 L642.2,407.3 L654.4,410.4 L666.7,413.4 L678.9,416.3 L691.1,419.1 L703.3,421.8 L715.6,424.5 L727.8,427.1 L740.0,429.6 L752.2,432.1 L764.4,434.5 L776.7,436.8 L788.9,439.1 L801.1,441.3 L813.3,443.4 L825.6,445.5 L837.8,447.5 L850.0,449.5 L862.2,451.4 L874.4,453.3 L886.7,455.1 L898.9,456.8 L911.1,458.5 L923.3,460.2 L935.6,461.8" fill="none" stroke="#4285f4" stroke-width="3" opacity="0.8"/>
<text x="90" y="157.3" font-size="11" fill="#4285f4" font-weight="bold">全新机价格曲线</text>
<path d="M80.0,180.9 L92.2,190.2 L104.4,199.1 L116.7,207.8 L128.9,216.3 L141.1,224.6 L153.3,232.6 L165.6,240.4 L177.8,248.0 L190.0,255.4 L202.2,262.6 L214.4,269.6 L226.7,276.4 L238.9,283.0 L251.1,289.4 L263.3,295.7 L275.6,301.8 L287.8,307.7 L300.0,313.5 L312.2,319.1 L324.4,324.6 L336.7,329.9 L348.9,335.0 L361.1,340.1 L373.3,345.0 L385.6,349.7 L397.8,354.3 L410.0,358.8 L422.2,363.2 L434.4,367.5 L446.7,371.6 L458.9,375.7 L471.1,379.6 L483.3,383.4 L495.6,387.1 L507.8,390.7 L520.0,394.2 L532.2,397.6 L544.4,401.0 L556.7,404.2 L568.9,407.3 L581.1,410.4 L593.3,413.4 L605.6,416.3 L617.8,419.1 L630.0,421.8 L642.2,424.5 L654.4,427.1 L666.7,429.6 L678.9,432.1 L691.1,434.5 L703.3,436.8 L715.6,439.1 L727.8,441.3 L740.0,443.4 L752.2,445.5 L764.4,447.5 L776.7,449.5 L788.9,451.4 L801.1,453.3 L813.3,455.1 L825.6,456.8 L837.8,458.5 L850.0,460.2 L862.2,461.8 L874.4,463.4 L886.7,465.0" fill="none" stroke="#34a853" stroke-width="3" opacity="0.8"/>
<text x="446.7" y="223.9" font-size="11" fill="#34a853" font-weight="bold">6个月二手价格曲线</text>
<path d="M80.0,232.6 L92.2,240.4 L104.4,248.0 L116.7,255.4 L128.9,262.6 L141.1,269.6 L153.3,276.4 L165.6,283.0 L177.8,289.4 L190.0,295.7 L202.2,301.8 L214.4,307.7 L226.7,313.5 L238.9,319.1 L251.1,324.6 L263.3,329.9 L275.6,335.0 L287.8,340.1 L300.0,345.0 L312.2,349.7 L324.4,354.3 L336.7,358.8 L348.9,363.2 L361.1,367.5 L373.3,371.6 L385.6,375.7 L397.8,379.6 L410.0,383.4 L422.2,387.1 L434.4,390.7 L446.7,394.2 L458.9,397.6 L471.1,401.0 L483.3,404.2 L495.6,407.3 L507.8,410.4 L520.0,413.4 L532.2,416.3 L544.4,419.1 L556.7,421.8 L568.9,424.5 L581.1,427.1 L593.3,429.6 L605.6,432.1 L617.8,434.5 L630.0,436.8 L642.2,439.1 L654.4,441.3 L666.7,443.4 L678.9,445.5 L691.1,447.5 L703.3,449.5 L715.6,451.4 L727.8,453.3 L740.0,455.1 L752.2,456.8 L764.4,458.5 L776.7,460.2 L788.9,461.8 L801.1,463.4 L813.3,465.0" fill="none" stroke="#fbbc04" stroke-width="3" opacity="0.8"/>
<text x="593.3" y="290.6" font-size="11" fill="#fbbc04" font-weight="bold">12个月二手价格曲线</text>
<circle cx="153.3" cy="180.9" r="8" fill="#34a853" stroke="#fff" stroke-width="2"/>
<text x="165.3" y="172.9" font-size="11" fill="#34a853" font-weight="bold">推荐购买点</text>
<text x="165.3" y="186.9" font-size="10" fill="#5f6368">时间：6个月后</text>
<text x="165.3" y="200.9" font-size="10" fill="#5f6368">价格：¥5085</text>
<circle cx="593.3" cy="394.2" r="8" fill="#ea4335" stroke="#fff" stroke-width="2"/>
<text x="493.3" y="386.2" font-size="11" fill="#ea4335" font-weight="bold">推荐卖出点</text>
<text x="493.3" y="400.2" font-size="10" fill="#5f6368">时间：42个月后</text>
<text x="493.3" y="414.2" font-size="10" fill="#5f6368">价格：¥1886</text>
<line x1="153.3" y1="180.9" x2="593.3" y2="394.2" stroke="#34a853" stroke-width="2" stroke-dasharray="5,3"/>
<circle cx="80.0" cy="120.0" r="8" fill="#4285f4" stroke="#fff" stroke-width="2"/>
<text x="92.0" y="90.0" font-size="11" fill="#4285f4" font-weight="bold">当前购买点</text>
<circle cx="251.1" cy="248.0" r="8" fill="#ea4335" stroke="#fff" stroke-width="2"/>
<text x="263.1" y="218.0" font-size="11" fill="#ea4335" font-weight="bold">当前卖出点</text>
<line x1="80.0" y1="120.0" x2="251.1" y2="248.0" stroke="#4285f4" stroke-width="2" stroke-dasharray="5,3"/>
<rect x="80" y="580" width="880" height="120" fill="#f8f9fa" stroke="#dadce0" rx="5"/>
<text x="90" y="600" font-size="12" fill="#202124" font-weight="bold">策略对比分析：</text>
<text x="100" y="620" font-size="11" fill="#34a853">推荐策略：买6个月二手，持有36个月</text>
<text x="120" y="635" font-size="10" fill="#5f6368">月成本：¥88.9/月 | 平均机龄：24个月</text>
<text x="100" y="655" font-size="11" fill="#4285f4">当前策略：买全新，持有14个月</text>
<text x="120" y="670" font-size="10" fill="#5f6368">月成本：¥137.1/月 | 平均机龄：7个月</text>
<text x="100" y="690" font-size="11" fill="#ea4335">改善效果：每月节省¥48.3（35.2%）</text>
</svg>